<?xml version="1.0" encoding="UTF-8" standalone="no"?>
<!DOCTYPE svg PUBLIC "-//W3C//DTD SVG 1.1//EN" "http://www.w3.org/Graphics/SVG/1.1/DTD/svg11.dtd">
<svg width="100%" height="100%" viewBox="0 0 34 34" version="1.1" xmlns="http://www.w3.org/2000/svg" xmlns:xlink="http://www.w3.org/1999/xlink" xml:space="preserve" xmlns:serif="http://www.serif.com/" style="fill-rule:evenodd;clip-rule:evenodd;stroke-linejoin:round;stroke-miterlimit:2;">
    <g transform="matrix(1.38889,0,0,1.38889,0,0)">
        <g transform="matrix(0.0849673,0,0,0.0849673,12,12)">
            <g transform="matrix(1,0,0,1,-153,-153)">
                <g id="_556_bank_note_outline" transform="matrix(1.17301,0,0,1.17301,-85.1223,-26.4736)">
                    <path d="M99.947,184.82L99.947,122.205L147.672,149.762L147.672,212.388L99.947,184.82Z" style="fill:rgb(115,160,254);fill-rule:nonzero;"/>
                    <path d="M147.672,213.403C147.494,213.401 147.319,213.352 147.165,213.261L99.47,185.703C99.158,185.523 98.965,185.19 98.962,184.83L98.962,122.205C98.961,121.841 99.155,121.504 99.47,121.322C99.784,121.141 100.171,121.141 100.485,121.322L148.19,148.879C148.505,149.061 148.699,149.399 148.698,149.762L148.698,212.388C148.695,212.748 148.502,213.081 148.19,213.261C148.033,213.354 147.855,213.403 147.672,213.403ZM100.982,184.242L146.657,210.632L146.657,150.351L100.982,123.961L100.982,184.242Z" style="fill:rgb(22,27,31);fill-rule:nonzero;"/>
                    <path d="M147.682,212.398L147.682,149.772L250.908,90.131L250.908,152.756L147.682,212.398Z" style="fill:rgb(22,27,31);fill-rule:nonzero;"/>
                    <path d="M147.682,213.413C147.505,213.414 147.33,213.369 147.175,213.281C146.86,213.099 146.666,212.761 146.668,212.398L146.668,149.772C146.67,149.412 146.863,149.079 147.175,148.899L250.4,89.258C250.714,89.077 251.102,89.077 251.415,89.258C251.727,89.438 251.921,89.771 251.923,90.131L251.923,152.756C251.924,153.12 251.73,153.458 251.415,153.639L148.19,213.281C148.035,213.369 147.86,213.414 147.682,213.413ZM148.698,150.361L148.698,210.642L249.893,152.168L249.893,91.887L148.698,150.361Z" style="fill:rgb(22,27,31);fill-rule:nonzero;"/>
                    <path d="M147.672,158.156C147.495,158.157 147.32,158.112 147.165,158.024L99.47,130.467C99.154,130.286 98.959,129.948 98.959,129.584C98.959,129.025 99.419,128.565 99.978,128.565C100.156,128.565 100.331,128.612 100.485,128.701L147.713,155.974L250.4,96.657C250.555,96.569 250.73,96.522 250.908,96.522C251.467,96.522 251.926,96.982 251.926,97.54C251.926,97.905 251.731,98.242 251.415,98.423L148.19,158.075C148.028,158.147 147.849,158.175 147.672,158.156Z" style="fill:rgb(22,27,31);fill-rule:nonzero;"/>
                    <path d="M147.672,167.545C147.495,167.546 147.32,167.501 147.165,167.413L99.47,139.856C99.177,139.67 99,139.346 99,138.999C99,138.442 99.458,137.984 100.015,137.984C100.178,137.984 100.34,138.024 100.485,138.1L147.713,165.363L250.4,106.056C250.88,105.781 251.501,105.945 251.781,106.422C251.872,106.577 251.92,106.754 251.92,106.935C251.92,107.296 251.728,107.631 251.415,107.812L148.19,167.413C148.032,167.502 147.854,167.548 147.672,167.545Z" style="fill:rgb(22,27,31);fill-rule:nonzero;"/>
                    <path d="M147.672,176.944C147.494,176.942 147.319,176.893 147.165,176.802L99.47,149.245C99.177,149.058 99,148.735 99,148.388C99,147.831 99.458,147.373 100.015,147.373C100.178,147.373 100.34,147.413 100.485,147.489L147.713,174.751L250.4,115.445C250.546,115.369 250.707,115.329 250.871,115.329C251.428,115.329 251.886,115.788 251.886,116.344C251.886,116.691 251.708,117.015 251.415,117.201L148.19,176.802C148.033,176.895 147.855,176.944 147.672,176.944Z" style="fill:rgb(22,27,31);fill-rule:nonzero;"/>
                    <path d="M147.672,186.333C147.495,186.334 147.32,186.288 147.165,186.201L99.47,158.643C99.158,158.462 98.965,158.127 98.965,157.766C98.965,157.586 99.013,157.408 99.105,157.253C99.385,156.776 100.006,156.612 100.485,156.887L147.713,184.15L250.4,124.834C250.555,124.745 250.73,124.698 250.908,124.698C251.467,124.698 251.926,125.158 251.926,125.717C251.926,126.081 251.731,126.418 251.415,126.6L148.19,186.201C148.032,186.29 147.854,186.336 147.672,186.333Z" style="fill:rgb(22,27,31);fill-rule:nonzero;"/>
                    <path d="M147.672,195.732C147.494,195.73 147.319,195.681 147.165,195.589L99.47,168.032C99.177,167.846 99,167.522 99,167.176C99,166.619 99.458,166.161 100.015,166.161C100.178,166.161 100.34,166.2 100.485,166.276L147.713,193.539L250.4,134.233C250.546,134.157 250.707,134.117 250.871,134.117C251.428,134.117 251.886,134.575 251.886,135.132C251.886,135.479 251.708,135.803 251.415,135.989L148.19,195.63C148.029,195.709 147.851,195.744 147.672,195.732Z" style="fill:rgb(22,27,31);fill-rule:nonzero;"/>
                    <path d="M147.672,205.12C147.495,205.118 147.321,205.072 147.165,204.988L99.47,177.431C99.154,177.25 98.959,176.912 98.959,176.548C98.959,175.989 99.419,175.53 99.978,175.53C100.156,175.53 100.331,175.576 100.485,175.665L147.713,202.938L250.4,143.621C250.555,143.533 250.73,143.486 250.908,143.486C251.467,143.486 251.926,143.946 251.926,144.504C251.926,144.869 251.731,145.206 251.415,145.388L148.19,204.988C148.03,205.072 147.853,205.118 147.672,205.12Z" style="fill:rgb(22,27,31);fill-rule:nonzero;"/>
                    <path d="M208.867,176.761L188.607,188.464L188.607,126.204L208.867,114.511L208.867,176.761Z" style="fill:rgb(143,143,143);fill-rule:nonzero;"/>
                    <path d="M188.607,189.479C188.429,189.477 188.253,189.428 188.1,189.337C187.788,189.157 187.594,188.824 187.592,188.464L187.592,126.204C187.594,125.844 187.788,125.511 188.1,125.331L208.4,113.628C208.713,113.447 209.101,113.447 209.415,113.628C209.73,113.81 209.924,114.148 209.922,114.511L209.922,176.761C209.924,177.125 209.73,177.462 209.415,177.644L189.115,189.337C188.961,189.428 188.786,189.477 188.607,189.479ZM189.622,126.793L189.622,186.678L207.892,176.152L207.892,116.267L189.622,126.793Z" style="fill:rgb(22,27,31);fill-rule:nonzero;"/>
                    <path d="M99.937,122.205L203.173,62.604L250.908,90.161L147.672,149.762L99.937,122.205Z" style="fill:rgb(115,160,254);fill-rule:nonzero;"/>
                    <path d="M147.672,150.777C147.495,150.778 147.32,150.733 147.165,150.645L99.47,123.088C99.157,122.907 98.964,122.571 98.964,122.21C98.964,121.849 99.157,121.513 99.47,121.332L202.665,61.731C202.979,61.55 203.366,61.55 203.68,61.731L251.385,89.288C251.698,89.47 251.891,89.805 251.891,90.166C251.891,90.528 251.698,90.863 251.385,91.044L148.19,150.645C148.032,150.735 147.854,150.78 147.672,150.777ZM101.997,122.205L147.672,148.595L248.878,90.161L203.203,63.771L101.997,122.205Z" style="fill:rgb(22,27,31);fill-rule:nonzero;"/>
                    <path d="M140.405,137.714L120.267,126.082L120.541,125.93C125.058,123.332 125.139,119.14 120.785,116.48L192.688,74.967C197.296,77.474 204.553,77.423 209.07,74.825L209.334,74.662L229.471,86.284L229.187,86.436C224.68,89.045 224.609,93.237 228.943,95.896L157.031,137.41C152.433,134.903 145.175,134.943 140.669,137.552C140.577,137.6 140.489,137.654 140.405,137.714Z" style="fill:rgb(71,100,162);fill-rule:nonzero;"/>
                    <g transform="matrix(0.040028,-0.022623,0.0462111,0.0274506,97.6712,110.416)">
                        <text x="417px" y="1009px" style="font-family:'DINAlternate-Bold', 'DIN Alternate', sans-serif;font-weight:700;font-size:755.261px;fill:white;">X BB</text>
                    </g>
                    <path d="M140.405,138.729C140.226,138.727 140.051,138.678 139.897,138.587L119.77,126.965C119.445,126.778 119.25,126.426 119.262,126.052C119.273,125.675 119.493,125.334 119.831,125.169L120.044,125.057C121.922,123.971 122.967,122.591 122.988,121.17C123.008,119.749 122.033,118.429 120.267,117.353C119.953,117.167 119.763,116.825 119.77,116.46C119.776,116.104 119.969,115.775 120.277,115.597L192.18,74.074C192.494,73.893 192.881,73.893 193.195,74.074C197.499,76.418 204.36,76.357 208.582,73.942L208.775,73.82C209.106,73.61 209.53,73.61 209.861,73.82L229.999,85.452C230.308,85.634 230.498,85.967 230.498,86.326C230.498,86.713 230.276,87.068 229.928,87.238L229.725,87.36C227.847,88.446 226.802,89.816 226.781,91.237C226.761,92.658 227.725,93.988 229.491,95.074C229.796,95.259 229.981,95.591 229.979,95.947C229.973,96.303 229.78,96.631 229.471,96.81L157.558,138.333C157.245,138.514 156.857,138.514 156.543,138.333C152.25,135.989 145.378,136.039 141.176,138.455L140.973,138.577C140.803,138.683 140.605,138.736 140.405,138.729ZM122.216,126.042L140.395,136.537C145.614,133.985 151.707,133.881 157.01,136.253L227.045,95.795C225.6,94.694 224.732,92.993 224.691,91.176C224.804,89.216 225.836,87.42 227.472,86.335L209.334,75.86C204.114,78.411 198.022,78.515 192.718,76.144L122.683,116.602C124.131,117.702 125.002,119.403 125.048,121.22C124.912,123.181 123.863,124.968 122.216,126.042Z" style="fill:rgb(22,27,31);fill-rule:nonzero;"/>
                    <path d="M140.872,98.576L161.131,86.883L208.867,114.44L188.607,126.133L140.872,98.576Z" style="fill:white;fill-rule:nonzero;"/>
                    <path d="M188.607,127.148C188.43,127.149 188.254,127.104 188.1,127.016L140.395,99.459C140.077,99.279 139.88,98.941 139.88,98.576C139.88,98.211 140.077,97.873 140.395,97.693L160.695,86C161.008,85.819 161.396,85.819 161.71,86L209.415,113.557C209.73,113.739 209.924,114.077 209.922,114.44C209.92,114.8 209.727,115.133 209.415,115.313L189.115,127.016C188.96,127.104 188.785,127.149 188.607,127.148ZM142.932,98.576L188.607,124.966L206.877,114.44L161.202,88.05L142.932,98.576Z" style="fill:rgb(22,27,31);fill-rule:nonzero;"/>
                    <path d="M155.102,215.818L155.102,153.193L202.838,180.76L202.838,243.376L155.102,215.818Z" style="fill:rgb(115,160,254);fill-rule:nonzero;"/>
                    <path d="M202.827,244.35C202.65,244.351 202.475,244.306 202.32,244.218L154.615,216.661C154.3,216.479 154.106,216.141 154.107,215.778L154.107,153.203C154.106,152.839 154.3,152.502 154.615,152.32C154.929,152.139 155.316,152.139 155.63,152.32L203.335,179.877C203.65,180.059 203.844,180.397 203.842,180.76L203.842,243.335C203.844,243.699 203.65,244.036 203.335,244.218C203.18,244.306 203.005,244.351 202.827,244.35ZM156.137,215.199L201.812,241.589L201.812,181.339L156.137,154.949L156.137,215.199Z" style="fill:rgb(22,27,31);fill-rule:nonzero;"/>
                    <path d="M202.838,243.396L202.838,180.77L306.063,121.129L306.063,183.755L202.838,243.396Z" style="fill:rgb(115,160,254);fill-rule:nonzero;"/>
                    <path d="M202.838,244.411C202.659,244.409 202.484,244.36 202.33,244.269C202.018,244.089 201.825,243.756 201.823,243.396L201.823,180.77C201.821,180.407 202.015,180.069 202.33,179.887L305.515,120.246C305.829,120.065 306.216,120.065 306.53,120.246C306.845,120.428 307.039,120.765 307.037,121.129L307.037,183.755C307.035,184.115 306.842,184.447 306.53,184.627L203.305,244.269C203.163,244.353 203.002,244.402 202.838,244.411ZM203.853,181.359L203.853,241.64L305.048,183.166L305.048,122.885L203.853,181.359Z" style="fill:rgb(22,27,31);fill-rule:nonzero;"/>
                    <path d="M202.827,189.154C202.649,189.152 202.474,189.103 202.32,189.012L154.615,161.455C154.322,161.269 154.144,160.945 154.144,160.598C154.144,160.042 154.603,159.583 155.159,159.583C155.323,159.583 155.485,159.623 155.63,159.699L202.858,186.962L305.515,127.625C305.66,127.549 305.822,127.509 305.985,127.509C306.542,127.509 307,127.968 307,128.524C307,128.871 306.823,129.195 306.53,129.381L203.335,189.012C203.181,189.103 203.006,189.152 202.827,189.154Z" style="fill:rgb(22,27,31);fill-rule:nonzero;"/>
                    <path d="M202.827,198.543C202.65,198.544 202.475,198.499 202.32,198.411L154.615,170.854C154.303,170.672 154.11,170.337 154.11,169.976C154.11,169.796 154.158,169.619 154.25,169.463C154.53,168.987 155.151,168.823 155.63,169.098L202.858,196.361L305.515,137.054C305.994,136.779 306.615,136.943 306.895,137.42C307.164,137.897 307.001,138.51 306.53,138.79L203.335,198.411C203.18,198.499 203.005,198.544 202.827,198.543Z" style="fill:rgb(22,27,31);fill-rule:nonzero;"/>
                    <path d="M202.827,207.942C202.649,207.94 202.474,207.891 202.32,207.8L154.615,180.243C154.303,180.061 154.11,179.726 154.11,179.365C154.11,179.185 154.158,179.008 154.25,178.852C154.53,178.376 155.151,178.211 155.63,178.487L202.827,205.78L305.515,146.443C305.994,146.168 306.615,146.332 306.895,146.809C306.987,146.964 307.035,147.141 307.035,147.322C307.035,147.683 306.842,148.018 306.53,148.199L203.335,207.81C203.18,207.898 203.005,207.943 202.827,207.942Z" style="fill:rgb(22,27,31);fill-rule:nonzero;"/>
                    <path d="M202.827,217.331C202.65,217.328 202.476,217.283 202.32,217.199L154.615,189.631C154.322,189.445 154.144,189.122 154.144,188.775C154.144,188.218 154.603,187.76 155.159,187.76C155.323,187.76 155.485,187.799 155.63,187.875L202.858,215.148L305.515,155.832C305.66,155.756 305.822,155.716 305.985,155.716C306.542,155.716 307,156.174 307,156.731C307,157.078 306.823,157.402 306.53,157.588L203.335,217.199C203.179,217.283 203.005,217.328 202.827,217.331Z" style="fill:rgb(22,27,31);fill-rule:nonzero;"/>
                    <path d="M202.827,226.719C202.65,226.721 202.475,226.675 202.32,226.588L154.615,199.03C154.303,198.849 154.11,198.514 154.11,198.153C154.11,197.972 154.158,197.795 154.25,197.64C154.53,197.163 155.151,196.999 155.63,197.274L202.858,224.537L305.515,165.231C305.994,164.955 306.615,165.12 306.895,165.596C306.987,165.752 307.035,165.929 307.035,166.109C307.035,166.47 306.842,166.805 306.53,166.987L203.335,226.588C203.18,226.675 203.005,226.721 202.827,226.719Z" style="fill:rgb(22,27,31);fill-rule:nonzero;"/>
                    <path d="M202.827,236.118C202.649,236.116 202.474,236.067 202.32,235.976L154.615,208.419C154.322,208.233 154.144,207.909 154.144,207.562C154.144,207.006 154.603,206.547 155.159,206.547C155.323,206.547 155.485,206.587 155.63,206.663L202.858,233.926L305.515,174.62C305.66,174.544 305.822,174.504 305.985,174.504C306.542,174.504 307,174.962 307,175.519C307,175.866 306.823,176.189 306.53,176.375L203.335,235.976C203.181,236.067 203.006,236.116 202.827,236.118Z" style="fill:rgb(22,27,31);fill-rule:nonzero;"/>
                    <path d="M264.022,207.759L243.762,219.452L243.762,157.202L264.022,145.509L264.022,207.759Z" style="fill:rgb(143,143,143);fill-rule:nonzero;"/>
                    <path d="M243.762,220.467C243.585,220.468 243.41,220.423 243.255,220.335C242.94,220.153 242.746,219.816 242.747,219.452L242.747,157.202C242.75,156.842 242.943,156.509 243.255,156.329L263.555,144.626C263.869,144.445 264.256,144.445 264.57,144.626C264.885,144.808 265.079,145.146 265.077,145.509L265.077,207.81C265.079,208.174 264.885,208.511 264.57,208.693L244.27,220.386C244.111,220.456 243.936,220.484 243.762,220.467ZM244.777,157.791L244.777,217.676L263.047,207.16L263.047,147.275L244.777,157.791Z" style="fill:rgb(22,27,31);fill-rule:nonzero;"/>
                    <path d="M155.092,153.203L258.328,93.602L306.063,121.159L202.827,180.76L155.092,153.203Z" style="fill:rgb(115,160,254);fill-rule:nonzero;"/>
                    <path d="M202.827,181.775C202.65,181.776 202.475,181.731 202.32,181.643L154.615,154.086C154.297,153.906 154.1,153.568 154.1,153.203C154.1,152.838 154.297,152.5 154.615,152.32L257.81,92.719C258.124,92.538 258.511,92.538 258.825,92.719L306.53,120.276C306.848,120.456 307.045,120.794 307.045,121.159C307.045,121.525 306.848,121.863 306.53,122.043L203.335,181.643C203.18,181.731 203.005,181.776 202.827,181.775ZM157.152,153.203L202.827,179.593L304.033,121.159L258.358,94.769L157.152,153.203Z" style="fill:rgb(22,27,31);fill-rule:nonzero;"/>
                    <path d="M195.56,168.702L175.422,157.06L175.707,156.908C180.213,154.299 180.294,150.117 175.94,147.458L247.853,105.945C252.451,108.452 259.718,108.401 264.225,105.802L264.489,105.64L284.626,117.262L284.342,117.414C279.835,120.023 279.764,124.215 284.098,126.874L212.186,168.387C207.588,165.88 200.331,165.921 195.824,168.519L195.56,168.702Z" style="fill:rgb(71,100,162);fill-rule:nonzero;"/>
                    <g transform="matrix(0.040028,-0.022623,0.0462111,0.0274506,151.671,141.416)">
                        <text x="417px" y="1009px" style="font-family:'DINAlternate-Bold', 'DIN Alternate', sans-serif;font-weight:700;font-size:755.261px;fill:white;">X BB</text>
                    </g>
                    <g transform="matrix(0.021051,0.0117396,-0.0263919,0.0128798,166.946,81.2183)">
                        <text x="417px" y="1009px" style="font-family:'DINAlternate-Bold', 'DIN Alternate', sans-serif;font-weight:700;font-size:755.261px;fill:rgb(81,81,81);">XXBB</text>
                    </g>
                    <path d="M195.56,169.717C195.382,169.718 195.207,169.673 195.053,169.585L174.915,157.963C174.598,157.783 174.402,157.446 174.402,157.081C174.402,156.692 174.625,156.336 174.976,156.167L175.179,156.055C177.067,154.969 178.112,153.589 178.132,152.168C178.153,150.747 177.178,149.427 175.412,148.341C175.105,148.159 174.915,147.826 174.915,147.468C174.915,147.11 175.105,146.778 175.412,146.595L247.325,105.082C247.639,104.901 248.026,104.901 248.34,105.082C252.633,107.426 259.505,107.366 263.717,104.95L263.92,104.828C264.249,104.623 264.668,104.623 264.996,104.828L285.134,116.45C285.451,116.63 285.647,116.968 285.647,117.332C285.647,117.721 285.423,118.077 285.073,118.246L284.87,118.358C282.982,119.444 281.937,120.824 281.916,122.245C281.896,123.666 282.86,124.996 284.626,126.072C284.934,126.255 285.123,126.587 285.123,126.945C285.123,127.303 284.934,127.635 284.626,127.818L212.714,169.342C212.4,169.523 212.012,169.523 211.699,169.342C207.395,166.997 200.534,167.048 196.321,169.463C196.251,169.499 196.183,169.539 196.118,169.585C195.949,169.682 195.755,169.728 195.56,169.717ZM177.371,157.06L195.56,167.555C200.758,164.99 206.835,164.863 212.135,167.21L282.17,126.752C280.726,125.651 279.859,123.95 279.815,122.134C279.936,120.171 280.97,118.373 282.606,117.282L264.418,106.787C259.199,109.343 253.105,109.447 247.802,107.071L177.767,147.529C179.2,148.64 180.064,150.335 180.122,152.147C180.034,154.126 179.013,155.951 177.371,157.06Z" style="fill:rgb(22,27,31);fill-rule:nonzero;"/>
                    <path d="M196.027,129.574L216.286,117.871L264.022,145.428L243.762,157.131L196.027,129.574Z" style="fill:white;fill-rule:nonzero;"/>
                    <g transform="matrix(0.021051,0.0117396,-0.0263919,0.0128798,222.403,112.586)">
                        <text x="417px" y="1009px" style="font-family:'DINAlternate-Bold', 'DIN Alternate', sans-serif;font-weight:700;font-size:755.261px;fill:rgb(81,81,81);">XXBB</text>
                    </g>
                    <path d="M243.762,158.146C243.584,158.144 243.409,158.095 243.255,158.004L195.55,130.447C195.237,130.265 195.044,129.93 195.044,129.569C195.044,129.207 195.237,128.872 195.55,128.691L215.85,116.998C216.164,116.817 216.551,116.817 216.865,116.998L264.57,144.555C264.883,144.737 265.076,145.072 265.076,145.433C265.076,145.795 264.883,146.13 264.57,146.311L244.27,158.004C244.116,158.095 243.941,158.144 243.762,158.146ZM198.087,129.574L243.762,155.964L262.032,145.438L216.357,119.048L198.087,129.574Z" style="fill:rgb(22,27,31);fill-rule:nonzero;"/>
                </g>
            </g>
        </g>
    </g>
</svg>
